<?xml version="1.0" encoding="us-ascii" standalone="no"?><svg xmlns="http://www.w3.org/2000/svg" xmlns:xlink="http://www.w3.org/1999/xlink" contentStyleType="text/css" height="1137px" preserveAspectRatio="none" style="width:1437px;height:1137px;background:#FFFFFF;" version="1.1" viewBox="0 0 1437 1137" width="1437px" zoomAndPan="magnify"><defs/><g><!--cluster com--><g id="cluster_com"><path d="M8.5,6.0137 L38.5,6.0137 A3.75,3.75 0 0 1 41,8.5137 L48,30.6348 L1427.5,30.6348 A2.5,2.5 0 0 1 1430,33.1348 L1430,1127.5137 A2.5,2.5 0 0 1 1427.5,1130.0137 L8.5,1130.0137 A2.5,2.5 0 0 1 6,1127.5137 L6,8.5137 A2.5,2.5 0 0 1 8.5,6.0137 " fill="none" style="stroke:#000000;stroke-width:1.5;"/><line style="stroke:#000000;stroke-width:1.5;" x1="6" x2="48" y1="30.6348" y2="30.6348"/><text fill="#000000" font-family="sans-serif" font-size="14" font-weight="bold" lengthAdjust="spacing" textLength="29" x="10" y="23.1211">com</text></g><!--cluster taskflow--><g id="cluster_taskflow"><path d="M32.5,51.0137 L91.5,51.0137 A3.75,3.75 0 0 1 94,53.5137 L101,75.6348 L1403.5,75.6348 A2.5,2.5 0 0 1 1406,78.1348 L1406,1103.5137 A2.5,2.5 0 0 1 1403.5,1106.0137 L32.5,1106.0137 A2.5,2.5 0 0 1 30,1103.5137 L30,53.5137 A2.5,2.5 0 0 1 32.5,51.0137 " fill="none" style="stroke:#000000;stroke-width:1.5;"/><line style="stroke:#000000;stroke-width:1.5;" x1="30" x2="101" y1="75.6348" y2="75.6348"/><text fill="#000000" font-family="sans-serif" font-size="14" font-weight="bold" lengthAdjust="spacing" textLength="58" x="34" y="68.1211">taskflow</text></g><!--cluster taskflow--><g id="cluster_taskflow"><path d="M56.5,96.0137 L115.5,96.0137 A3.75,3.75 0 0 1 118,98.5137 L125,120.6348 L1379.5,120.6348 A2.5,2.5 0 0 1 1382,123.1348 L1382,1079.5137 A2.5,2.5 0 0 1 1379.5,1082.0137 L56.5,1082.0137 A2.5,2.5 0 0 1 54,1079.5137 L54,98.5137 A2.5,2.5 0 0 1 56.5,96.0137 " fill="none" style="stroke:#000000;stroke-width:1.5;"/><line style="stroke:#000000;stroke-width:1.5;" x1="54" x2="125" y1="120.6348" y2="120.6348"/><text fill="#000000" font-family="sans-serif" font-size="14" font-weight="bold" lengthAdjust="spacing" textLength="58" x="58" y="113.1211">taskflow</text></g><!--cluster dao--><g id="cluster_dao"><path d="M623.5,243.5137 L650.5,243.5137 A3.75,3.75 0 0 1 653,246.0137 L660,268.1348 L1355.5,268.1348 A2.5,2.5 0 0 1 1358,270.6348 L1358,999.5137 A2.5,2.5 0 0 1 1355.5,1002.0137 L623.5,1002.0137 A2.5,2.5 0 0 1 621,999.5137 L621,246.0137 A2.5,2.5 0 0 1 623.5,243.5137 " fill="none" style="stroke:#000000;stroke-width:1.5;"/><line style="stroke:#000000;stroke-width:1.5;" x1="621" x2="660" y1="268.1348" y2="268.1348"/><text fill="#000000" font-family="sans-serif" font-size="14" font-weight="bold" lengthAdjust="spacing" textLength="26" x="625" y="260.6211">dao</text></g><!--cluster pojo--><g id="cluster_pojo"><path d="M80.5,141.0137 L112.5,141.0137 A3.75,3.75 0 0 1 115,143.5137 L122,165.6348 L594.5,165.6348 A2.5,2.5 0 0 1 597,168.1348 L597,1055.5137 A2.5,2.5 0 0 1 594.5,1058.0137 L80.5,1058.0137 A2.5,2.5 0 0 1 78,1055.5137 L78,143.5137 A2.5,2.5 0 0 1 80.5,141.0137 " fill="none" style="stroke:#000000;stroke-width:1.5;"/><line style="stroke:#000000;stroke-width:1.5;" x1="78" x2="122" y1="165.6348" y2="165.6348"/><text fill="#000000" font-family="sans-serif" font-size="14" font-weight="bold" lengthAdjust="spacing" textLength="31" x="82" y="158.1211">pojo</text></g><!--class CategoriasDAO--><g id="elem_CategoriasDAO"><rect codeLine="1" fill="#F1F1F1" height="252.832" id="CategoriasDAO" rx="2.5" ry="2.5" style="stroke:#181818;stroke-width:0.5;" width="384" x="637" y="280.5137"/><ellipse cx="775.25" cy="296.5137" fill="#ADD1B2" rx="11" ry="11" style="stroke:#181818;stroke-width:1.0;"/><path d="M778.0156,292.3887 Q778.1719,292.1699 778.3594,292.0605 Q778.5469,291.9512 778.7656,291.9512 Q779.1406,291.9512 779.375,292.2168 Q779.6094,292.4668 779.6094,293.0762 L779.6094,294.5293 Q779.6094,295.1387 779.375,295.4043 Q779.1406,295.6699 778.7656,295.6699 Q778.4219,295.6699 778.2188,295.4668 Q778.0156,295.2793 777.9063,294.7637 Q777.8594,294.4043 777.6719,294.2168 Q777.3438,293.8418 776.7344,293.623 Q776.125,293.4043 775.5,293.4043 Q774.7344,293.4043 774.0938,293.7324 Q773.4688,294.0605 772.9688,294.8105 Q772.4844,295.5605 772.4844,296.5918 L772.4844,297.6855 Q772.4844,298.9199 773.375,299.748 Q774.2656,300.5605 775.8594,300.5605 Q776.7969,300.5605 777.4531,300.3105 Q777.8438,300.1543 778.2656,299.7168 Q778.5313,299.4512 778.6719,299.373 Q778.8281,299.2949 779.0313,299.2949 Q779.3594,299.2949 779.6094,299.5605 Q779.875,299.8105 779.875,300.1543 Q779.875,300.498 779.5313,300.9043 Q779.0313,301.4824 778.2344,301.8105 Q777.1563,302.2637 775.8594,302.2637 Q774.3438,302.2637 773.1406,301.6387 Q772.1563,301.1387 771.4688,300.0762 Q770.7813,298.998 770.7813,297.7168 L770.7813,296.5605 Q770.7813,295.2324 771.3906,294.0918 Q772.0156,292.9355 773.1094,292.3262 Q774.2031,291.7012 775.4375,291.7012 Q776.1719,291.7012 776.8125,291.873 Q777.4688,292.0293 778.0156,292.3887 Z " fill="#000000"/><text fill="#000000" font-family="sans-serif" font-size="14" lengthAdjust="spacing" textLength="99" x="795.75" y="302.3105">CategoriasDAO</text><line style="stroke:#181818;stroke-width:0.5;" x1="638" x2="1020" y1="312.5137" y2="312.5137"/><polygon fill="none" points="648,323.3242,644,329.3242,652,329.3242" style="stroke:#1963A0;stroke-width:1.0;"/><text fill="#000000" font-family="sans-serif" font-size="14" lengthAdjust="spacing" text-decoration="underline" textLength="107" x="657" y="331.6211">Connection conn</text><polygon fill="none" points="648,341.9453,644,347.9453,652,347.9453" style="stroke:#1963A0;stroke-width:1.0;"/><text fill="#000000" font-family="sans-serif" font-size="14" lengthAdjust="spacing" text-decoration="underline" textLength="185" x="657" y="350.2422">ObservableList&lt;String&gt; items</text><line style="stroke:#181818;stroke-width:0.5;" x1="638" x2="1020" y1="357.7559" y2="357.7559"/><ellipse cx="648" cy="372.5664" fill="#84BE84" rx="3" ry="3" style="stroke:#038048;stroke-width:1.0;"/><text fill="#000000" font-family="sans-serif" font-size="14" lengthAdjust="spacing" text-decoration="underline" textLength="178" x="657" y="376.8633">Connection getConnection()</text><ellipse cx="648" cy="391.1875" fill="#84BE84" rx="3" ry="3" style="stroke:#038048;stroke-width:1.0;"/><text fill="#000000" font-family="sans-serif" font-size="14" lengthAdjust="spacing" textLength="161" x="657" y="395.4844">void crearDBCategorias()</text><ellipse cx="648" cy="409.8086" fill="#84BE84" rx="3" ry="3" style="stroke:#038048;stroke-width:1.0;"/><text fill="#000000" font-family="sans-serif" font-size="14" lengthAdjust="spacing" textLength="199" x="657" y="414.1055">void insertarCategoriaDefecto()</text><ellipse cx="648" cy="428.4297" fill="#84BE84" rx="3" ry="3" style="stroke:#038048;stroke-width:1.0;"/><text fill="#000000" font-family="sans-serif" font-size="14" lengthAdjust="spacing" text-decoration="underline" textLength="266" x="657" y="432.7266">ObservableList&lt;String&gt; getAllCategories()</text><ellipse cx="648" cy="447.0508" fill="#84BE84" rx="3" ry="3" style="stroke:#038048;stroke-width:1.0;"/><text fill="#000000" font-family="sans-serif" font-size="14" lengthAdjust="spacing" textLength="358" x="657" y="451.3477">ObservableList&lt;Categorias&gt; obtenerListadoCategorias()</text><ellipse cx="648" cy="465.6719" fill="#84BE84" rx="3" ry="3" style="stroke:#038048;stroke-width:1.0;"/><text fill="#000000" font-family="sans-serif" font-size="14" lengthAdjust="spacing" text-decoration="underline" textLength="159" x="657" y="469.9688">int getIdCategoria(String)</text><ellipse cx="648" cy="484.293" fill="#84BE84" rx="3" ry="3" style="stroke:#038048;stroke-width:1.0;"/><text fill="#000000" font-family="sans-serif" font-size="14" lengthAdjust="spacing" textLength="220" x="657" y="488.5898">void eliminarCategoria(Categorias)</text><ellipse cx="648" cy="502.9141" fill="#84BE84" rx="3" ry="3" style="stroke:#038048;stroke-width:1.0;"/><text fill="#000000" font-family="sans-serif" font-size="14" lengthAdjust="spacing" textLength="219" x="657" y="507.2109">void insertarCategoria(Categorias)</text><ellipse cx="648" cy="521.5352" fill="#84BE84" rx="3" ry="3" style="stroke:#038048;stroke-width:1.0;"/><text fill="#000000" font-family="sans-serif" font-size="14" lengthAdjust="spacing" textLength="231" x="657" y="525.832">void actualizarCategoria(Categorias)</text></g><!--class UsuariosDAO--><g id="elem_UsuariosDAO"><rect codeLine="14" fill="#F1F1F1" height="178.3477" id="UsuariosDAO" rx="2.5" ry="2.5" style="stroke:#181818;stroke-width:0.5;" width="285" x="1056.5" y="318.0137"/><ellipse cx="1152.25" cy="334.0137" fill="#ADD1B2" rx="11" ry="11" style="stroke:#181818;stroke-width:1.0;"/><path d="M1155.0156,329.8887 Q1155.1719,329.6699 1155.3594,329.5605 Q1155.5469,329.4512 1155.7656,329.4512 Q1156.1406,329.4512 1156.375,329.7168 Q1156.6094,329.9668 1156.6094,330.5762 L1156.6094,332.0293 Q1156.6094,332.6387 1156.375,332.9043 Q1156.1406,333.1699 1155.7656,333.1699 Q1155.4219,333.1699 1155.2188,332.9668 Q1155.0156,332.7793 1154.9063,332.2637 Q1154.8594,331.9043 1154.6719,331.7168 Q1154.3438,331.3418 1153.7344,331.123 Q1153.125,330.9043 1152.5,330.9043 Q1151.7344,330.9043 1151.0938,331.2324 Q1150.4688,331.5605 1149.9688,332.3105 Q1149.4844,333.0605 1149.4844,334.0918 L1149.4844,335.1855 Q1149.4844,336.4199 1150.375,337.248 Q1151.2656,338.0605 1152.8594,338.0605 Q1153.7969,338.0605 1154.4531,337.8105 Q1154.8438,337.6543 1155.2656,337.2168 Q1155.5313,336.9512 1155.6719,336.873 Q1155.8281,336.7949 1156.0313,336.7949 Q1156.3594,336.7949 1156.6094,337.0605 Q1156.875,337.3105 1156.875,337.6543 Q1156.875,337.998 1156.5313,338.4043 Q1156.0313,338.9824 1155.2344,339.3105 Q1154.1563,339.7637 1152.8594,339.7637 Q1151.3438,339.7637 1150.1406,339.1387 Q1149.1563,338.6387 1148.4688,337.5762 Q1147.7813,336.498 1147.7813,335.2168 L1147.7813,334.0605 Q1147.7813,332.7324 1148.3906,331.5918 Q1149.0156,330.4355 1150.1094,329.8262 Q1151.2031,329.2012 1152.4375,329.2012 Q1153.1719,329.2012 1153.8125,329.373 Q1154.4688,329.5293 1155.0156,329.8887 Z " fill="#000000"/><text fill="#000000" font-family="sans-serif" font-size="14" lengthAdjust="spacing" textLength="85" x="1172.75" y="339.8105">UsuariosDAO</text><line style="stroke:#181818;stroke-width:0.5;" x1="1057.5" x2="1340.5" y1="350.0137" y2="350.0137"/><polygon fill="none" points="1067.5,360.8242,1063.5,366.8242,1071.5,366.8242" style="stroke:#1963A0;stroke-width:1.0;"/><text fill="#000000" font-family="sans-serif" font-size="14" lengthAdjust="spacing" text-decoration="underline" textLength="107" x="1076.5" y="369.1211">Connection conn</text><line style="stroke:#181818;stroke-width:0.5;" x1="1057.5" x2="1340.5" y1="376.6348" y2="376.6348"/><ellipse cx="1067.5" cy="391.4453" fill="#84BE84" rx="3" ry="3" style="stroke:#038048;stroke-width:1.0;"/><text fill="#000000" font-family="sans-serif" font-size="14" lengthAdjust="spacing" text-decoration="underline" textLength="178" x="1076.5" y="395.7422">Connection getConnection()</text><ellipse cx="1067.5" cy="410.0664" fill="#84BE84" rx="3" ry="3" style="stroke:#038048;stroke-width:1.0;"/><text fill="#000000" font-family="sans-serif" font-size="14" lengthAdjust="spacing" textLength="147" x="1076.5" y="414.3633">void crearDBUsuarios()</text><ellipse cx="1067.5" cy="428.6875" fill="#84BE84" rx="3" ry="3" style="stroke:#038048;stroke-width:1.0;"/><text fill="#000000" font-family="sans-serif" font-size="14" lengthAdjust="spacing" textLength="185" x="1076.5" y="432.9844">void insertarUsuarioDefecto()</text><ellipse cx="1067.5" cy="447.3086" fill="#84BE84" rx="3" ry="3" style="stroke:#038048;stroke-width:1.0;"/><text fill="#000000" font-family="sans-serif" font-size="14" lengthAdjust="spacing" textLength="259" x="1076.5" y="451.6055">boolean comprobarUsuario(String,String)</text><ellipse cx="1067.5" cy="465.9297" fill="#84BE84" rx="3" ry="3" style="stroke:#038048;stroke-width:1.0;"/><text fill="#000000" font-family="sans-serif" font-size="14" lengthAdjust="spacing" text-decoration="underline" textLength="155" x="1076.5" y="470.2266">Usuarios getUser(String)</text><ellipse cx="1067.5" cy="484.5508" fill="#84BE84" rx="3" ry="3" style="stroke:#038048;stroke-width:1.0;"/><text fill="#000000" font-family="sans-serif" font-size="14" lengthAdjust="spacing" textLength="178" x="1076.5" y="488.8477">void insertUsuario(Usuarios)</text></g><!--class TareasDAO--><g id="elem_TareasDAO"><rect codeLine="47" fill="#F1F1F1" height="234.2109" id="TareasDAO" rx="2.5" ry="2.5" style="stroke:#181818;stroke-width:0.5;" width="380" x="639" y="752.0137"/><ellipse cx="787.25" cy="768.0137" fill="#ADD1B2" rx="11" ry="11" style="stroke:#181818;stroke-width:1.0;"/><path d="M790.0156,763.8887 Q790.1719,763.6699 790.3594,763.5605 Q790.5469,763.4512 790.7656,763.4512 Q791.1406,763.4512 791.375,763.7168 Q791.6094,763.9668 791.6094,764.5762 L791.6094,766.0293 Q791.6094,766.6387 791.375,766.9043 Q791.1406,767.1699 790.7656,767.1699 Q790.4219,767.1699 790.2188,766.9668 Q790.0156,766.7793 789.9063,766.2637 Q789.8594,765.9043 789.6719,765.7168 Q789.3438,765.3418 788.7344,765.123 Q788.125,764.9043 787.5,764.9043 Q786.7344,764.9043 786.0938,765.2324 Q785.4688,765.5605 784.9688,766.3105 Q784.4844,767.0605 784.4844,768.0918 L784.4844,769.1855 Q784.4844,770.4199 785.375,771.248 Q786.2656,772.0605 787.8594,772.0605 Q788.7969,772.0605 789.4531,771.8105 Q789.8438,771.6543 790.2656,771.2168 Q790.5313,770.9512 790.6719,770.873 Q790.8281,770.7949 791.0313,770.7949 Q791.3594,770.7949 791.6094,771.0605 Q791.875,771.3105 791.875,771.6543 Q791.875,771.998 791.5313,772.4043 Q791.0313,772.9824 790.2344,773.3105 Q789.1563,773.7637 787.8594,773.7637 Q786.3438,773.7637 785.1406,773.1387 Q784.1563,772.6387 783.4688,771.5762 Q782.7813,770.498 782.7813,769.2168 L782.7813,768.0605 Q782.7813,766.7324 783.3906,765.5918 Q784.0156,764.4355 785.1094,763.8262 Q786.2031,763.2012 787.4375,763.2012 Q788.1719,763.2012 788.8125,763.373 Q789.4688,763.5293 790.0156,763.8887 Z " fill="#000000"/><text fill="#000000" font-family="sans-serif" font-size="14" lengthAdjust="spacing" textLength="75" x="807.75" y="773.8105">TareasDAO</text><line style="stroke:#181818;stroke-width:0.5;" x1="640" x2="1018" y1="784.0137" y2="784.0137"/><polygon fill="none" points="650,794.8242,646,800.8242,654,800.8242" style="stroke:#1963A0;stroke-width:1.0;"/><text fill="#000000" font-family="sans-serif" font-size="14" lengthAdjust="spacing" text-decoration="underline" textLength="107" x="659" y="803.1211">Connection conn</text><line style="stroke:#181818;stroke-width:0.5;" x1="640" x2="1018" y1="810.6348" y2="810.6348"/><ellipse cx="650" cy="825.4453" fill="#84BE84" rx="3" ry="3" style="stroke:#038048;stroke-width:1.0;"/><text fill="#000000" font-family="sans-serif" font-size="14" lengthAdjust="spacing" text-decoration="underline" textLength="178" x="659" y="829.7422">Connection getConnection()</text><ellipse cx="650" cy="844.0664" fill="#84BE84" rx="3" ry="3" style="stroke:#038048;stroke-width:1.0;"/><text fill="#000000" font-family="sans-serif" font-size="14" lengthAdjust="spacing" textLength="137" x="659" y="848.3633">void crearDBTareas()</text><ellipse cx="650" cy="862.6875" fill="#84BE84" rx="3" ry="3" style="stroke:#038048;stroke-width:1.0;"/><text fill="#000000" font-family="sans-serif" font-size="14" lengthAdjust="spacing" textLength="183" x="659" y="866.9844">void insertTareaporDefecto()</text><ellipse cx="650" cy="881.3086" fill="#84BE84" rx="3" ry="3" style="stroke:#038048;stroke-width:1.0;"/><text fill="#000000" font-family="sans-serif" font-size="14" lengthAdjust="spacing" textLength="354" x="659" y="885.6055">ObservableList&lt;Tareas&gt; obtenerListadoTareas(Integer)</text><ellipse cx="650" cy="899.9297" fill="#84BE84" rx="3" ry="3" style="stroke:#038048;stroke-width:1.0;"/><text fill="#000000" font-family="sans-serif" font-size="14" lengthAdjust="spacing" textLength="178" x="659" y="904.2266">void insertarTareas(Tareas)</text><ellipse cx="650" cy="918.5508" fill="#84BE84" rx="3" ry="3" style="stroke:#038048;stroke-width:1.0;"/><text fill="#000000" font-family="sans-serif" font-size="14" lengthAdjust="spacing" textLength="336" x="659" y="922.8477">ObservableList&lt;Tareas&gt; findTaskByStatus(String,int)</text><ellipse cx="650" cy="937.1719" fill="#84BE84" rx="3" ry="3" style="stroke:#038048;stroke-width:1.0;"/><text fill="#000000" font-family="sans-serif" font-size="14" lengthAdjust="spacing" textLength="332" x="659" y="941.4688">ObservableList&lt;Tareas&gt; findTaskByName(String,int)</text><ellipse cx="650" cy="955.793" fill="#84BE84" rx="3" ry="3" style="stroke:#038048;stroke-width:1.0;"/><text fill="#000000" font-family="sans-serif" font-size="14" lengthAdjust="spacing" textLength="166" x="659" y="960.0898">void editarTareas(Tareas)</text><ellipse cx="650" cy="974.4141" fill="#84BE84" rx="3" ry="3" style="stroke:#038048;stroke-width:1.0;"/><text fill="#000000" font-family="sans-serif" font-size="14" lengthAdjust="spacing" textLength="172" x="659" y="978.7109">void eliminarTarea(Tareas)</text></g><!--class Tareas--><g id="elem_Tareas"><rect codeLine="23" fill="#F1F1F1" height="457.6641" id="Tareas" rx="2.5" ry="2.5" style="stroke:#181818;stroke-width:0.5;" width="238" x="94" y="178.0137"/><ellipse cx="186.25" cy="194.0137" fill="#ADD1B2" rx="11" ry="11" style="stroke:#181818;stroke-width:1.0;"/><path d="M189.0156,189.8887 Q189.1719,189.6699 189.3594,189.5605 Q189.5469,189.4512 189.7656,189.4512 Q190.1406,189.4512 190.375,189.7168 Q190.6094,189.9668 190.6094,190.5762 L190.6094,192.0293 Q190.6094,192.6387 190.375,192.9043 Q190.1406,193.1699 189.7656,193.1699 Q189.4219,193.1699 189.2188,192.9668 Q189.0156,192.7793 188.9063,192.2637 Q188.8594,191.9043 188.6719,191.7168 Q188.3438,191.3418 187.7344,191.123 Q187.125,190.9043 186.5,190.9043 Q185.7344,190.9043 185.0938,191.2324 Q184.4688,191.5605 183.9688,192.3105 Q183.4844,193.0605 183.4844,194.0918 L183.4844,195.1855 Q183.4844,196.4199 184.375,197.248 Q185.2656,198.0605 186.8594,198.0605 Q187.7969,198.0605 188.4531,197.8105 Q188.8438,197.6543 189.2656,197.2168 Q189.5313,196.9512 189.6719,196.873 Q189.8281,196.7949 190.0313,196.7949 Q190.3594,196.7949 190.6094,197.0605 Q190.875,197.3105 190.875,197.6543 Q190.875,197.998 190.5313,198.4043 Q190.0313,198.9824 189.2344,199.3105 Q188.1563,199.7637 186.8594,199.7637 Q185.3438,199.7637 184.1406,199.1387 Q183.1563,198.6387 182.4688,197.5762 Q181.7813,196.498 181.7813,195.2168 L181.7813,194.0605 Q181.7813,192.7324 182.3906,191.5918 Q183.0156,190.4355 184.1094,189.8262 Q185.2031,189.2012 186.4375,189.2012 Q187.1719,189.2012 187.8125,189.373 Q188.4688,189.5293 189.0156,189.8887 Z " fill="#000000"/><text fill="#000000" font-family="sans-serif" font-size="14" lengthAdjust="spacing" textLength="45" x="206.75" y="199.8105">Tareas</text><line style="stroke:#181818;stroke-width:0.5;" x1="95" x2="331" y1="210.0137" y2="210.0137"/><rect fill="none" height="6" style="stroke:#C82930;stroke-width:1.0;" width="6" x="102" y="221.8242"/><text fill="#000000" font-family="sans-serif" font-size="14" lengthAdjust="spacing" textLength="107" x="114" y="229.1211">Integer id_tareas</text><rect fill="none" height="6" style="stroke:#C82930;stroke-width:1.0;" width="6" x="102" y="240.4453"/><text fill="#000000" font-family="sans-serif" font-size="14" lengthAdjust="spacing" textLength="71" x="114" y="247.7422">String titulo</text><rect fill="none" height="6" style="stroke:#C82930;stroke-width:1.0;" width="6" x="102" y="259.0664"/><text fill="#000000" font-family="sans-serif" font-size="14" lengthAdjust="spacing" textLength="113" x="114" y="266.3633">String descripcion</text><rect fill="none" height="6" style="stroke:#C82930;stroke-width:1.0;" width="6" x="102" y="277.6875"/><text fill="#000000" font-family="sans-serif" font-size="14" lengthAdjust="spacing" textLength="84" x="114" y="284.9844">String estado</text><rect fill="none" height="6" style="stroke:#C82930;stroke-width:1.0;" width="6" x="102" y="296.3086"/><text fill="#000000" font-family="sans-serif" font-size="14" lengthAdjust="spacing" textLength="92" x="114" y="303.6055">int id_usuarios</text><rect fill="none" height="6" style="stroke:#C82930;stroke-width:1.0;" width="6" x="102" y="314.9297"/><text fill="#000000" font-family="sans-serif" font-size="14" lengthAdjust="spacing" textLength="97" x="114" y="322.2266">int id_categoria</text><rect fill="none" height="6" style="stroke:#C82930;stroke-width:1.0;" width="6" x="102" y="333.5508"/><text fill="#000000" font-family="sans-serif" font-size="14" lengthAdjust="spacing" textLength="156" x="114" y="340.8477">String nombre_categoria</text><line style="stroke:#181818;stroke-width:0.5;" x1="95" x2="331" y1="348.3613" y2="348.3613"/><ellipse cx="105" cy="363.1719" fill="#84BE84" rx="3" ry="3" style="stroke:#038048;stroke-width:1.0;"/><text fill="#000000" font-family="sans-serif" font-size="14" lengthAdjust="spacing" textLength="137" x="114" y="367.4688">Integer getId_tareas()</text><ellipse cx="105" cy="381.793" fill="#84BE84" rx="3" ry="3" style="stroke:#038048;stroke-width:1.0;"/><text fill="#000000" font-family="sans-serif" font-size="14" lengthAdjust="spacing" textLength="162" x="114" y="386.0898">void setId_tareas(Integer)</text><ellipse cx="105" cy="400.4141" fill="#84BE84" rx="3" ry="3" style="stroke:#038048;stroke-width:1.0;"/><text fill="#000000" font-family="sans-serif" font-size="14" lengthAdjust="spacing" textLength="106" x="114" y="404.7109">String getTitulo()</text><ellipse cx="105" cy="419.0352" fill="#84BE84" rx="3" ry="3" style="stroke:#038048;stroke-width:1.0;"/><text fill="#000000" font-family="sans-serif" font-size="14" lengthAdjust="spacing" textLength="131" x="114" y="423.332">void setTitulo(String)</text><ellipse cx="105" cy="437.6563" fill="#84BE84" rx="3" ry="3" style="stroke:#038048;stroke-width:1.0;"/><text fill="#000000" font-family="sans-serif" font-size="14" lengthAdjust="spacing" textLength="145" x="114" y="441.9531">String getDescripcion()</text><ellipse cx="105" cy="456.2773" fill="#84BE84" rx="3" ry="3" style="stroke:#038048;stroke-width:1.0;"/><text fill="#000000" font-family="sans-serif" font-size="14" lengthAdjust="spacing" textLength="170" x="114" y="460.5742">void setDescripcion(String)</text><ellipse cx="105" cy="474.8984" fill="#84BE84" rx="3" ry="3" style="stroke:#038048;stroke-width:1.0;"/><text fill="#000000" font-family="sans-serif" font-size="14" lengthAdjust="spacing" textLength="115" x="114" y="479.1953">String getEstado()</text><ellipse cx="105" cy="493.5195" fill="#84BE84" rx="3" ry="3" style="stroke:#038048;stroke-width:1.0;"/><text fill="#000000" font-family="sans-serif" font-size="14" lengthAdjust="spacing" textLength="140" x="114" y="497.8164">void setEstado(String)</text><ellipse cx="105" cy="512.1406" fill="#84BE84" rx="3" ry="3" style="stroke:#038048;stroke-width:1.0;"/><text fill="#000000" font-family="sans-serif" font-size="14" lengthAdjust="spacing" textLength="122" x="114" y="516.4375">int getId_usuarios()</text><ellipse cx="105" cy="530.7617" fill="#84BE84" rx="3" ry="3" style="stroke:#038048;stroke-width:1.0;"/><text fill="#000000" font-family="sans-serif" font-size="14" lengthAdjust="spacing" textLength="147" x="114" y="535.0586">void setId_usuarios(int)</text><ellipse cx="105" cy="549.3828" fill="#84BE84" rx="3" ry="3" style="stroke:#038048;stroke-width:1.0;"/><text fill="#000000" font-family="sans-serif" font-size="14" lengthAdjust="spacing" textLength="127" x="114" y="553.6797">int getId_categoria()</text><ellipse cx="105" cy="568.0039" fill="#84BE84" rx="3" ry="3" style="stroke:#038048;stroke-width:1.0;"/><text fill="#000000" font-family="sans-serif" font-size="14" lengthAdjust="spacing" textLength="152" x="114" y="572.3008">void setId_categoria(int)</text><ellipse cx="105" cy="586.625" fill="#84BE84" rx="3" ry="3" style="stroke:#038048;stroke-width:1.0;"/><text fill="#000000" font-family="sans-serif" font-size="14" lengthAdjust="spacing" textLength="187" x="114" y="590.9219">String getNombre_categoria()</text><ellipse cx="105" cy="605.2461" fill="#84BE84" rx="3" ry="3" style="stroke:#038048;stroke-width:1.0;"/><text fill="#000000" font-family="sans-serif" font-size="14" lengthAdjust="spacing" textLength="212" x="114" y="609.543">void setNombre_categoria(String)</text><ellipse cx="105" cy="623.8672" fill="#84BE84" rx="3" ry="3" style="stroke:#038048;stroke-width:1.0;"/><text fill="#000000" font-family="sans-serif" font-size="14" lengthAdjust="spacing" textLength="100" x="114" y="628.1641">String toString()</text></g><!--class Categorias--><g id="elem_Categorias"><rect codeLine="59" fill="#F1F1F1" height="178.3477" id="Categorias" rx="2.5" ry="2.5" style="stroke:#181818;stroke-width:0.5;" width="214" x="367" y="318.0137"/><ellipse cx="435.25" cy="334.0137" fill="#ADD1B2" rx="11" ry="11" style="stroke:#181818;stroke-width:1.0;"/><path d="M438.0156,329.8887 Q438.1719,329.6699 438.3594,329.5605 Q438.5469,329.4512 438.7656,329.4512 Q439.1406,329.4512 439.375,329.7168 Q439.6094,329.9668 439.6094,330.5762 L439.6094,332.0293 Q439.6094,332.6387 439.375,332.9043 Q439.1406,333.1699 438.7656,333.1699 Q438.4219,333.1699 438.2188,332.9668 Q438.0156,332.7793 437.9063,332.2637 Q437.8594,331.9043 437.6719,331.7168 Q437.3438,331.3418 436.7344,331.123 Q436.125,330.9043 435.5,330.9043 Q434.7344,330.9043 434.0938,331.2324 Q433.4688,331.5605 432.9688,332.3105 Q432.4844,333.0605 432.4844,334.0918 L432.4844,335.1855 Q432.4844,336.4199 433.375,337.248 Q434.2656,338.0605 435.8594,338.0605 Q436.7969,338.0605 437.4531,337.8105 Q437.8438,337.6543 438.2656,337.2168 Q438.5313,336.9512 438.6719,336.873 Q438.8281,336.7949 439.0313,336.7949 Q439.3594,336.7949 439.6094,337.0605 Q439.875,337.3105 439.875,337.6543 Q439.875,337.998 439.5313,338.4043 Q439.0313,338.9824 438.2344,339.3105 Q437.1563,339.7637 435.8594,339.7637 Q434.3438,339.7637 433.1406,339.1387 Q432.1563,338.6387 431.4688,337.5762 Q430.7813,336.498 430.7813,335.2168 L430.7813,334.0605 Q430.7813,332.7324 431.3906,331.5918 Q432.0156,330.4355 433.1094,329.8262 Q434.2031,329.2012 435.4375,329.2012 Q436.1719,329.2012 436.8125,329.373 Q437.4688,329.5293 438.0156,329.8887 Z " fill="#000000"/><text fill="#000000" font-family="sans-serif" font-size="14" lengthAdjust="spacing" textLength="69" x="455.75" y="339.8105">Categorias</text><line style="stroke:#181818;stroke-width:0.5;" x1="368" x2="580" y1="350.0137" y2="350.0137"/><rect fill="none" height="6" style="stroke:#C82930;stroke-width:1.0;" width="6" x="375" y="361.8242"/><text fill="#000000" font-family="sans-serif" font-size="14" lengthAdjust="spacing" textLength="133" x="387" y="369.1211">Integer id_categorias</text><rect fill="none" height="6" style="stroke:#C82930;stroke-width:1.0;" width="6" x="375" y="380.4453"/><text fill="#000000" font-family="sans-serif" font-size="14" lengthAdjust="spacing" textLength="89" x="387" y="387.7422">String nombre</text><line style="stroke:#181818;stroke-width:0.5;" x1="368" x2="580" y1="395.2559" y2="395.2559"/><ellipse cx="378" cy="410.0664" fill="#84BE84" rx="3" ry="3" style="stroke:#038048;stroke-width:1.0;"/><text fill="#000000" font-family="sans-serif" font-size="14" lengthAdjust="spacing" textLength="163" x="387" y="414.3633">Integer getId_categorias()</text><ellipse cx="378" cy="428.6875" fill="#84BE84" rx="3" ry="3" style="stroke:#038048;stroke-width:1.0;"/><text fill="#000000" font-family="sans-serif" font-size="14" lengthAdjust="spacing" textLength="188" x="387" y="432.9844">void setId_categorias(Integer)</text><ellipse cx="378" cy="447.3086" fill="#84BE84" rx="3" ry="3" style="stroke:#038048;stroke-width:1.0;"/><text fill="#000000" font-family="sans-serif" font-size="14" lengthAdjust="spacing" textLength="120" x="387" y="451.6055">String getNombre()</text><ellipse cx="378" cy="465.9297" fill="#84BE84" rx="3" ry="3" style="stroke:#038048;stroke-width:1.0;"/><text fill="#000000" font-family="sans-serif" font-size="14" lengthAdjust="spacing" textLength="145" x="387" y="470.2266">void setNombre(String)</text><ellipse cx="378" cy="484.5508" fill="#84BE84" rx="3" ry="3" style="stroke:#038048;stroke-width:1.0;"/><text fill="#000000" font-family="sans-serif" font-size="14" lengthAdjust="spacing" textLength="100" x="387" y="488.8477">String toString()</text></g><!--class Usuarios--><g id="elem_Usuarios"><rect codeLine="68" fill="#F1F1F1" height="345.9375" id="Usuarios" rx="2.5" ry="2.5" style="stroke:#181818;stroke-width:0.5;" width="195" x="115.5" y="696.0137"/><ellipse cx="181.25" cy="712.0137" fill="#ADD1B2" rx="11" ry="11" style="stroke:#181818;stroke-width:1.0;"/><path d="M184.0156,707.8887 Q184.1719,707.6699 184.3594,707.5605 Q184.5469,707.4512 184.7656,707.4512 Q185.1406,707.4512 185.375,707.7168 Q185.6094,707.9668 185.6094,708.5762 L185.6094,710.0293 Q185.6094,710.6387 185.375,710.9043 Q185.1406,711.1699 184.7656,711.1699 Q184.4219,711.1699 184.2188,710.9668 Q184.0156,710.7793 183.9063,710.2637 Q183.8594,709.9043 183.6719,709.7168 Q183.3438,709.3418 182.7344,709.123 Q182.125,708.9043 181.5,708.9043 Q180.7344,708.9043 180.0938,709.2324 Q179.4688,709.5605 178.9688,710.3105 Q178.4844,711.0605 178.4844,712.0918 L178.4844,713.1855 Q178.4844,714.4199 179.375,715.248 Q180.2656,716.0605 181.8594,716.0605 Q182.7969,716.0605 183.4531,715.8105 Q183.8438,715.6543 184.2656,715.2168 Q184.5313,714.9512 184.6719,714.873 Q184.8281,714.7949 185.0313,714.7949 Q185.3594,714.7949 185.6094,715.0605 Q185.875,715.3105 185.875,715.6543 Q185.875,715.998 185.5313,716.4043 Q185.0313,716.9824 184.2344,717.3105 Q183.1563,717.7637 181.8594,717.7637 Q180.3438,717.7637 179.1406,717.1387 Q178.1563,716.6387 177.4688,715.5762 Q176.7813,714.498 176.7813,713.2168 L176.7813,712.0605 Q176.7813,710.7324 177.3906,709.5918 Q178.0156,708.4355 179.1094,707.8262 Q180.2031,707.2012 181.4375,707.2012 Q182.1719,707.2012 182.8125,707.373 Q183.4688,707.5293 184.0156,707.8887 Z " fill="#000000"/><text fill="#000000" font-family="sans-serif" font-size="14" lengthAdjust="spacing" textLength="55" x="201.75" y="717.8105">Usuarios</text><line style="stroke:#181818;stroke-width:0.5;" x1="116.5" x2="309.5" y1="728.0137" y2="728.0137"/><rect fill="none" height="6" style="stroke:#C82930;stroke-width:1.0;" width="6" x="123.5" y="739.8242"/><text fill="#000000" font-family="sans-serif" font-size="14" lengthAdjust="spacing" textLength="114" x="135.5" y="747.1211">Integer id_usuario</text><rect fill="none" height="6" style="stroke:#C82930;stroke-width:1.0;" width="6" x="123.5" y="758.4453"/><text fill="#000000" font-family="sans-serif" font-size="14" lengthAdjust="spacing" textLength="104" x="135.5" y="765.7422">String username</text><rect fill="none" height="6" style="stroke:#C82930;stroke-width:1.0;" width="6" x="123.5" y="777.0664"/><text fill="#000000" font-family="sans-serif" font-size="14" lengthAdjust="spacing" textLength="89" x="135.5" y="784.3633">String nombre</text><rect fill="none" height="6" style="stroke:#C82930;stroke-width:1.0;" width="6" x="123.5" y="795.6875"/><text fill="#000000" font-family="sans-serif" font-size="14" lengthAdjust="spacing" textLength="74" x="135.5" y="802.9844">String email</text><rect fill="none" height="6" style="stroke:#C82930;stroke-width:1.0;" width="6" x="123.5" y="814.3086"/><text fill="#000000" font-family="sans-serif" font-size="14" lengthAdjust="spacing" textLength="101" x="135.5" y="821.6055">String password</text><line style="stroke:#181818;stroke-width:0.5;" x1="116.5" x2="309.5" y1="829.1191" y2="829.1191"/><ellipse cx="126.5" cy="843.9297" fill="#84BE84" rx="3" ry="3" style="stroke:#038048;stroke-width:1.0;"/><text fill="#000000" font-family="sans-serif" font-size="14" lengthAdjust="spacing" textLength="144" x="135.5" y="848.2266">Integer getId_usuario()</text><ellipse cx="126.5" cy="862.5508" fill="#84BE84" rx="3" ry="3" style="stroke:#038048;stroke-width:1.0;"/><text fill="#000000" font-family="sans-serif" font-size="14" lengthAdjust="spacing" textLength="169" x="135.5" y="866.8477">void setId_usuario(Integer)</text><ellipse cx="126.5" cy="881.1719" fill="#84BE84" rx="3" ry="3" style="stroke:#038048;stroke-width:1.0;"/><text fill="#000000" font-family="sans-serif" font-size="14" lengthAdjust="spacing" textLength="135" x="135.5" y="885.4688">String getUsername()</text><ellipse cx="126.5" cy="899.793" fill="#84BE84" rx="3" ry="3" style="stroke:#038048;stroke-width:1.0;"/><text fill="#000000" font-family="sans-serif" font-size="14" lengthAdjust="spacing" textLength="160" x="135.5" y="904.0898">void setUsername(String)</text><ellipse cx="126.5" cy="918.4141" fill="#84BE84" rx="3" ry="3" style="stroke:#038048;stroke-width:1.0;"/><text fill="#000000" font-family="sans-serif" font-size="14" lengthAdjust="spacing" textLength="120" x="135.5" y="922.7109">String getNombre()</text><ellipse cx="126.5" cy="937.0352" fill="#84BE84" rx="3" ry="3" style="stroke:#038048;stroke-width:1.0;"/><text fill="#000000" font-family="sans-serif" font-size="14" lengthAdjust="spacing" textLength="145" x="135.5" y="941.332">void setNombre(String)</text><ellipse cx="126.5" cy="955.6563" fill="#84BE84" rx="3" ry="3" style="stroke:#038048;stroke-width:1.0;"/><text fill="#000000" font-family="sans-serif" font-size="14" lengthAdjust="spacing" textLength="105" x="135.5" y="959.9531">String getEmail()</text><ellipse cx="126.5" cy="974.2773" fill="#84BE84" rx="3" ry="3" style="stroke:#038048;stroke-width:1.0;"/><text fill="#000000" font-family="sans-serif" font-size="14" lengthAdjust="spacing" textLength="130" x="135.5" y="978.5742">void setEmail(String)</text><ellipse cx="126.5" cy="992.8984" fill="#84BE84" rx="3" ry="3" style="stroke:#038048;stroke-width:1.0;"/><text fill="#000000" font-family="sans-serif" font-size="14" lengthAdjust="spacing" textLength="132" x="135.5" y="997.1953">String getPassword()</text><ellipse cx="126.5" cy="1011.5195" fill="#84BE84" rx="3" ry="3" style="stroke:#038048;stroke-width:1.0;"/><text fill="#000000" font-family="sans-serif" font-size="14" lengthAdjust="spacing" textLength="157" x="135.5" y="1015.8164">void setPassword(String)</text><ellipse cx="126.5" cy="1030.1406" fill="#84BE84" rx="3" ry="3" style="stroke:#038048;stroke-width:1.0;"/><text fill="#000000" font-family="sans-serif" font-size="14" lengthAdjust="spacing" textLength="100" x="135.5" y="1034.4375">String toString()</text></g><!--SRC=[jLNDRjGm4BxlK_YugB1FW2grNGwLK8lKx1avZdTbI3oHxRI2gZmxZkruOiVR512dZMVccvzlVfQrL6l2eDiPghyVMtZ2ZuR2xeOQVW8bgDvVtPFdpI_oh0qrWhsG6v2ICoD0MhoKSzLzhRbwf7NBFmjjFZuO9UJfaWZ3ExsvABeuSOElxJjhzGYY8KnnglRNc0QgXBH135LHj-T72mTdiPQA3NVLjXEKUxUPBGQz950RBhaQvRI1B9qOJ4WpUhvjei7M1un9yrPqGiwItgAlyvMLZ2Wp0st5ptDcBnksqjk37gWIiDxPl-dOv7pPhw2PTwi6Q3aTetMzWZhQ1FRU8uanaSd_cCR1Eiw9zj4cFvFr6YqzV8DTHMq9sbBoWTnAIoXNH3HVZPDQcGz4Z3132_Xkk6PAzCoIWKBkniM-nycmJeQG1qhOr384IUXgnMUQYvY76wwG2ZAhvz9WEYg3FmkgNB898eYGDhJUOoa9P2uluJwvQXD84A5rN978HLv7b5lJ514PoI6e21ZCwIuZCu4kb8kg3FYFxLiMoW_EVrcdAckv7sydxK7DToaxOXwO7x1gCIl9YWQr_td5wL78fh8CNFzui0KDUjhNq8LLr1tjU8RnLx8HfIoI2-h4KVc6jSRZcAzsxB_Ebt2nUgpmHwHpJN45_QmLnkyVXixL5IzXLbNO8onfiDsGbl55aNYkEYfQVFOsyXEePi52S7rcSylr7qBq11I5fNFo1uoDnsVCFRqzJbAo_H8AIyoZyDL-_0O0]--></g></svg>